<mxfile host="app.diagrams.net" agent="Mozilla/5.0 (Windows NT 10.0; Win64; x64) AppleWebKit/537.36 (KHTML, like Gecko) Chrome/131.0.0.0 Safari/537.36" version="24.9.2">
  <diagram name="Side-1" id="xcPwZulOgSc4jFvjlqly">
    <mxGraphModel dx="2219" dy="569" grid="1" gridSize="10" guides="1" tooltips="1" connect="1" arrows="1" fold="1" page="1" pageScale="1" pageWidth="1169" pageHeight="1654" math="0" shadow="0">
      <root>
        <mxCell id="0" />
        <mxCell id="1" parent="0" />
        <mxCell id="Y16_Ag_frZ3wuAwhggBJ-1" value="Plot Data" style="rounded=0;whiteSpace=wrap;html=1;" vertex="1" parent="1">
          <mxGeometry x="550" y="200" width="120" height="60" as="geometry" />
        </mxCell>
        <mxCell id="Y16_Ag_frZ3wuAwhggBJ-42" style="edgeStyle=orthogonalEdgeStyle;rounded=0;orthogonalLoop=1;jettySize=auto;html=1;exitX=1;exitY=0.5;exitDx=0;exitDy=0;entryX=0;entryY=0.25;entryDx=0;entryDy=0;" edge="1" parent="1" source="Y16_Ag_frZ3wuAwhggBJ-2" target="Y16_Ag_frZ3wuAwhggBJ-1">
          <mxGeometry relative="1" as="geometry" />
        </mxCell>
        <mxCell id="Y16_Ag_frZ3wuAwhggBJ-43" style="edgeStyle=orthogonalEdgeStyle;rounded=0;orthogonalLoop=1;jettySize=auto;html=1;exitX=1;exitY=0.5;exitDx=0;exitDy=0;entryX=0;entryY=0.75;entryDx=0;entryDy=0;" edge="1" parent="1" source="Y16_Ag_frZ3wuAwhggBJ-2" target="Y16_Ag_frZ3wuAwhggBJ-1">
          <mxGeometry relative="1" as="geometry" />
        </mxCell>
        <mxCell id="Y16_Ag_frZ3wuAwhggBJ-2" value="Select Data" style="rounded=0;whiteSpace=wrap;html=1;" vertex="1" parent="1">
          <mxGeometry x="340" y="200" width="120" height="60" as="geometry" />
        </mxCell>
        <mxCell id="Y16_Ag_frZ3wuAwhggBJ-5" value="" style="edgeStyle=orthogonalEdgeStyle;rounded=0;orthogonalLoop=1;jettySize=auto;html=1;" edge="1" parent="1" source="Y16_Ag_frZ3wuAwhggBJ-4" target="Y16_Ag_frZ3wuAwhggBJ-2">
          <mxGeometry relative="1" as="geometry" />
        </mxCell>
        <mxCell id="Y16_Ag_frZ3wuAwhggBJ-39" style="edgeStyle=orthogonalEdgeStyle;rounded=0;orthogonalLoop=1;jettySize=auto;html=1;exitX=1;exitY=0.5;exitDx=0;exitDy=0;entryX=0.5;entryY=1;entryDx=0;entryDy=0;" edge="1" parent="1" source="Y16_Ag_frZ3wuAwhggBJ-4" target="Y16_Ag_frZ3wuAwhggBJ-1">
          <mxGeometry relative="1" as="geometry">
            <Array as="points">
              <mxPoint x="290" y="230" />
              <mxPoint x="290" y="350" />
              <mxPoint x="610" y="350" />
            </Array>
          </mxGeometry>
        </mxCell>
        <mxCell id="Y16_Ag_frZ3wuAwhggBJ-40" value="Heat Map Data" style="edgeLabel;html=1;align=center;verticalAlign=middle;resizable=0;points=[];" vertex="1" connectable="0" parent="Y16_Ag_frZ3wuAwhggBJ-39">
          <mxGeometry x="0.0257" y="-1" relative="1" as="geometry">
            <mxPoint x="29" as="offset" />
          </mxGeometry>
        </mxCell>
        <mxCell id="Y16_Ag_frZ3wuAwhggBJ-4" value="Remove Zero-Padded Section" style="rounded=0;whiteSpace=wrap;html=1;" vertex="1" parent="1">
          <mxGeometry x="140" y="200" width="120" height="60" as="geometry" />
        </mxCell>
        <mxCell id="Y16_Ag_frZ3wuAwhggBJ-8" value="&lt;div&gt;FF-Data&lt;/div&gt;3D-Array" style="text;html=1;align=center;verticalAlign=middle;whiteSpace=wrap;rounded=0;" vertex="1" parent="1">
          <mxGeometry x="-310" y="190" width="60" height="30" as="geometry" />
        </mxCell>
        <mxCell id="Y16_Ag_frZ3wuAwhggBJ-9" value="2D-Array" style="text;html=1;align=center;verticalAlign=middle;whiteSpace=wrap;rounded=0;" vertex="1" parent="1">
          <mxGeometry x="260" y="180" width="60" height="30" as="geometry" />
        </mxCell>
        <mxCell id="Y16_Ag_frZ3wuAwhggBJ-12" value="Chosen Angle&lt;div&gt;&lt;br&gt;&lt;div&gt;Raw E-and H-Plane Data&lt;/div&gt;&lt;/div&gt;" style="text;html=1;align=center;verticalAlign=middle;whiteSpace=wrap;rounded=0;" vertex="1" parent="1">
          <mxGeometry x="460" y="160" width="80" height="30" as="geometry" />
        </mxCell>
        <mxCell id="Y16_Ag_frZ3wuAwhggBJ-13" value="Chosen Angle&lt;div&gt;&lt;br&gt;&lt;div&gt;Smooth E-and H-Plane Data&lt;/div&gt;&lt;/div&gt;" style="text;html=1;align=center;verticalAlign=middle;whiteSpace=wrap;rounded=0;" vertex="1" parent="1">
          <mxGeometry x="450" y="270" width="110" height="30" as="geometry" />
        </mxCell>
        <mxCell id="Y16_Ag_frZ3wuAwhggBJ-44" style="edgeStyle=orthogonalEdgeStyle;rounded=0;orthogonalLoop=1;jettySize=auto;html=1;exitX=1;exitY=0.5;exitDx=0;exitDy=0;entryX=0;entryY=0.5;entryDx=0;entryDy=0;" edge="1" parent="1" source="Y16_Ag_frZ3wuAwhggBJ-41" target="Y16_Ag_frZ3wuAwhggBJ-4">
          <mxGeometry relative="1" as="geometry" />
        </mxCell>
        <mxCell id="Y16_Ag_frZ3wuAwhggBJ-41" value="Normalize Data" style="rounded=0;whiteSpace=wrap;html=1;" vertex="1" parent="1">
          <mxGeometry x="-50" y="200" width="120" height="60" as="geometry" />
        </mxCell>
        <mxCell id="Y16_Ag_frZ3wuAwhggBJ-45" value="2D-Array" style="text;html=1;align=center;verticalAlign=middle;whiteSpace=wrap;rounded=0;" vertex="1" parent="1">
          <mxGeometry x="70" y="190" width="60" height="30" as="geometry" />
        </mxCell>
        <mxCell id="Y16_Ag_frZ3wuAwhggBJ-46" value="2D-Array" style="text;html=1;align=center;verticalAlign=middle;whiteSpace=wrap;rounded=0;" vertex="1" parent="1">
          <mxGeometry x="-120" y="190" width="60" height="30" as="geometry" />
        </mxCell>
        <mxCell id="Y16_Ag_frZ3wuAwhggBJ-48" style="edgeStyle=orthogonalEdgeStyle;rounded=0;orthogonalLoop=1;jettySize=auto;html=1;exitX=1;exitY=0.5;exitDx=0;exitDy=0;" edge="1" parent="1" source="Y16_Ag_frZ3wuAwhggBJ-47" target="Y16_Ag_frZ3wuAwhggBJ-41">
          <mxGeometry relative="1" as="geometry" />
        </mxCell>
        <mxCell id="Y16_Ag_frZ3wuAwhggBJ-47" value="Sum Polarities" style="rounded=0;whiteSpace=wrap;html=1;" vertex="1" parent="1">
          <mxGeometry x="-240" y="200" width="120" height="60" as="geometry" />
        </mxCell>
        <mxCell id="Y16_Ag_frZ3wuAwhggBJ-49" value="" style="endArrow=classic;html=1;rounded=0;entryX=0;entryY=0.5;entryDx=0;entryDy=0;" edge="1" parent="1" target="Y16_Ag_frZ3wuAwhggBJ-47">
          <mxGeometry width="50" height="50" relative="1" as="geometry">
            <mxPoint x="-310" y="230" as="sourcePoint" />
            <mxPoint x="-250" y="230" as="targetPoint" />
          </mxGeometry>
        </mxCell>
      </root>
    </mxGraphModel>
  </diagram>
</mxfile>
